<svg xmlns="http://www.w3.org/2000/svg" viewBox="0 0 128 128">
  <rect width="128" height="128" rx="28" fill="#111218" />
  <path
    d="M78 24c2 12 10 20 22 23v16c-8 0-15-2-22-6v24c0 20-15 31-32 31-17 0-30-11-30-28 0-18 13-30 31-30 2 0 4 0 6 1v16c-2-1-4-1-6-1-9 0-15 5-15 14 0 8 6 13 14 13 10 0 16-6 16-17V24h16Z"
    fill="#25F4EE"
  />
  <path
    d="M72 20c2 12 10 20 22 23v14c-7-1-13-3-19-7v28c0 18-13 29-29 29-5 0-9-1-13-3 5 7 13 11 23 11 17 0 32-11 32-31V60c7 4 14 6 22 6V50c-12-3-20-11-22-23H72Z"
    fill="#FE2C55"
  />
</svg>
